<svg width="38" height="39" viewBox="0 0 38 39" fill="none" xmlns="http://www.w3.org/2000/svg">
<path fill-rule="evenodd" clip-rule="evenodd" d="M33.4751 0.499356C26.7875 4.52919 8.21667 15.7176 1.55428 19.7311C0.65693 20.2721 0.11667 21.3363 0.161803 22.473C0.208263 23.6083 0.832145 24.6161 1.76799 25.0637L10.7653 29.3751L10.7215 35.6756C10.7122 36.9013 11.3813 38.0084 12.4047 38.456C13.4268 38.9051 14.5923 38.6042 15.3344 37.7001L19.1348 33.0641L28.8211 36.6434C29.5485 36.9131 30.3463 36.8168 31.006 36.3796C31.6671 35.9438 32.1264 35.2102 32.2658 34.3669L37.3459 3.64733C37.5317 2.52538 37.1242 1.38418 36.2985 0.711305C35.4715 0.0399126 34.3737 -0.0416109 33.4751 0.499356ZM34.3246 5.5963L29.6547 33.8289L19.1534 29.9487C18.6569 29.7649 18.11 29.925 17.7569 30.3548L13.3764 35.6978L13.4229 29.018L34.3246 5.5963ZM2.81402 22.3396L11.7954 26.6422L30.5415 5.63483L2.81402 22.3396Z" fill="#EB6D1B"/>
</svg>
