<svg width="38" height="39" viewBox="0 0 38 39" fill="none" xmlns="http://www.w3.org/2000/svg">
<g clip-path="url(#clip0_328_103)">
<path d="M15.8313 0.579586C13.4609 0.687984 10.1656 0.991497 9.14669 1.19384C5.74298 1.87314 2.99689 4.5831 2.27423 7.96513C2.12247 8.69501 1.97072 10.9353 1.884 13.927C1.76115 17.9522 1.98517 23.719 2.31036 25.1065C2.89572 27.5636 4.50001 29.6665 6.67521 30.8155C7.7881 31.4081 8.61193 31.6538 10.0428 31.8272C10.5414 31.8923 11.0617 31.9573 11.1846 31.979L11.4231 32.0151L11.4375 34.7468L11.4524 36.6155C11.4554 37 11.8699 37.2402 12.205 37.0517L15.9686 34.9347L20.4852 32.3909L21.9666 32.3476C24.4236 32.2681 27.7479 32.0007 29.3233 31.755C31.1443 31.4659 32.7125 30.6638 34.0494 29.3341C34.8371 28.5536 35.2707 27.9683 35.7043 27.1083C36.3475 25.8292 36.5859 24.7886 36.716 22.7218C36.9979 18.1835 36.969 12.9659 36.6365 9.17197C36.4486 7.03291 35.6682 5.2624 34.2518 3.79541C33.0305 2.5163 31.6719 1.71416 29.9953 1.28779C29.0053 1.02763 25.7172 0.709663 22.7326 0.572357C20.9404 0.492867 17.6234 0.492867 15.8313 0.579586ZM24.0695 2.23447C27.1264 2.44404 29.157 2.68251 29.9592 2.93544C32.5174 3.73759 34.4107 5.79716 34.9094 8.34091C35.0756 9.17197 35.1768 10.6679 35.2852 13.862C35.4152 17.8944 35.1912 23.589 34.8371 24.962C34.2229 27.3829 32.1777 29.4353 29.7641 30.0495C28.709 30.3241 24.6766 30.6782 21.8004 30.7577L20.066 30.8011L16.5611 32.7812L13.049 34.754L13.0274 32.6655L13.0129 30.5698L12.7022 30.5337C12.5359 30.512 11.7627 30.4253 10.9895 30.3386C10.2162 30.2519 9.34904 30.129 9.05997 30.0495C6.53068 29.4063 4.55783 27.4263 3.90021 24.8681C3.30763 22.5556 3.31486 10.48 3.90743 8.02295C4.56505 5.31298 6.94982 3.15224 9.79708 2.7042C10.7076 2.55967 13.2225 2.32841 14.8557 2.23447C15.6145 2.19111 16.4238 2.14775 16.6623 2.1333C17.5006 2.08271 22.9639 2.15498 24.0695 2.23447Z" fill="#EB6D1B" stroke="#EB6D1B" stroke-width="1.00699"/>
<path d="M19.3733 6.0504V6.8381L20.2622 6.91759C23.5069 7.22111 25.9206 8.77482 27.2069 11.3908C27.7561 12.511 28.0235 13.5299 28.103 14.8451L28.1536 15.6401L28.9051 15.6617C29.317 15.669 29.6784 15.6545 29.7073 15.6256C29.794 15.5317 29.6567 13.9635 29.4977 13.1758C29.2086 11.7522 28.7534 10.6465 28.009 9.54083C27.3875 8.60138 26.8022 7.9799 25.9639 7.34396C24.4463 6.20216 22.7264 5.559 20.609 5.34943C20.1971 5.30607 19.7563 5.26993 19.619 5.26993H19.3733V6.0504Z" fill="#EB6D1B" stroke="#EB6D1B" stroke-width="1.00699"/>
<path d="M11.371 7.82773C10.829 8.00117 10.4532 8.283 9.74499 9.02011C8.9862 9.80058 8.56706 10.516 8.35026 11.376C8.1985 11.9613 8.20573 14.1293 8.35749 15.1627C9.00788 19.6432 11.7901 23.4516 15.8659 25.4316C17.8315 26.3928 19.696 26.8047 22.0229 26.8047C23.2298 26.8047 23.8296 26.6891 24.61 26.3061C25.5495 25.8508 26.7635 24.7018 27.1321 23.9141C27.2549 23.6467 27.2839 23.4516 27.2839 22.8301C27.2839 21.7316 27.1682 21.5221 25.7374 20.0623C24.386 18.6748 23.9596 18.3424 23.3165 18.1689C22.3481 17.9088 21.4231 18.14 20.6354 18.8555C20.4042 19.065 20.0428 19.318 19.8188 19.4119C19.4792 19.5709 19.3491 19.5926 18.8721 19.5637C18.0772 19.5203 17.7592 19.318 16.6319 18.1689C15.8587 17.374 15.678 17.15 15.5479 16.8031C15.2372 15.9721 15.3889 15.3072 16.061 14.5484C16.2995 14.2738 16.5958 13.8402 16.7186 13.5801C16.9282 13.1609 16.9499 13.0453 16.9499 12.46C16.9499 11.8746 16.9282 11.759 16.7114 11.3037C16.5018 10.8701 16.2995 10.6316 15.1577 9.48984C13.5751 7.91445 13.3583 7.77715 12.3321 7.74824C11.9202 7.73379 11.5589 7.76269 11.371 7.82773ZM12.5055 9.3164C12.8741 9.41758 15.2878 11.8529 15.36 12.1926C15.4467 12.6262 15.3456 12.8936 14.8469 13.4717C14.594 13.7752 14.2977 14.1871 14.2038 14.3822C13.6618 15.4445 13.6762 16.6514 14.2471 17.7932C14.4206 18.14 14.7241 18.4941 15.6419 19.4047C16.8993 20.6693 17.2678 20.9223 18.1567 21.1318C19.3274 21.4064 20.5631 21.074 21.4737 20.243C22.1024 19.6721 22.471 19.542 22.9624 19.7227C23.1936 19.8094 25.47 22.0424 25.629 22.3387C25.759 22.5844 25.759 23.0686 25.629 23.3215C25.4844 23.6033 24.451 24.5789 24.068 24.8029C23.5477 25.1064 22.984 25.2148 21.9723 25.2148C20.5053 25.2148 19.3057 25.027 18.0049 24.5934C13.9436 23.242 10.9663 19.8889 10.0413 15.618C9.93288 15.0977 9.88229 14.5484 9.85338 13.4934C9.81725 12.1926 9.82448 12.0336 9.96901 11.5711C10.2725 10.5738 11.5083 9.27304 12.1803 9.24414C12.2237 9.24414 12.3682 9.28027 12.5055 9.3164Z" fill="#EB6D1B" stroke="#EB6D1B" stroke-width="1.00699"/>
<path d="M19.3733 9.24424C19.3733 9.67783 19.395 10.0392 19.4311 10.0392C19.7708 10.0464 20.9342 10.2126 21.2811 10.2993C23.4202 10.8413 24.7499 12.5612 24.9305 14.9894L24.9739 15.6397L25.7543 15.6614L26.5276 15.6831V15.1845C26.5276 14.9099 26.477 14.3968 26.4192 14.0427C25.8627 10.8485 23.6731 8.87568 20.3127 8.52158C19.937 8.48545 19.5684 8.44932 19.5034 8.44932C19.3877 8.44932 19.3733 8.53603 19.3733 9.24424Z" fill="#EB6D1B" stroke="#EB6D1B" stroke-width="1.00699"/>
<path d="M19.4009 11.7379C19.3792 11.7812 19.3792 12.1426 19.3864 12.54L19.4081 13.2555L19.9212 13.2988C20.5499 13.3566 20.9979 13.5518 21.2942 13.8842C21.5688 14.2021 21.6844 14.5129 21.7423 15.1561L21.7928 15.6402L22.5733 15.6619L23.3466 15.6836V15.3006C23.3393 14.3467 22.9346 13.2555 22.3782 12.6918C22.0313 12.3449 21.3809 11.9764 20.8895 11.8463C20.3909 11.709 19.437 11.6439 19.4009 11.7379Z" fill="#EB6D1B" stroke="#EB6D1B" stroke-width="1.00699"/>
</g>
<defs>
<clipPath id="clip0_328_103">
<rect width="37" height="39" fill="white" transform="translate(0.877686)"/>
</clipPath>
</defs>
</svg>
