<svg width="39" height="39" viewBox="0 0 39 39" fill="none" xmlns="http://www.w3.org/2000/svg">
<path d="M30.3966 22.21L26.7664 19.6338C26.3106 19.3092 25.7488 19.1752 25.1871 19.2628C24.6253 19.3453 24.1324 19.6389 23.8038 20.0821L22.6803 21.5763C22.622 21.6535 22.6432 21.5814 22.6167 21.6793C22.6114 21.6896 22.5478 21.7721 22.3464 21.803C22.0073 21.8545 20.9897 21.7927 18.7904 20.0821L18.5784 19.9326C16.2624 18.4333 15.8915 17.511 15.8385 17.1812C15.812 17.0112 15.8544 16.9288 15.8491 16.9236C15.9233 16.8772 15.9021 16.8772 15.9604 16.8051L17.0839 15.3109C17.4178 14.8678 17.5556 14.3216 17.4655 13.7755C17.3754 13.2293 17.0786 12.7501 16.6228 12.4255L12.929 9.80294C11.9856 9.13312 10.6554 9.33407 9.96646 10.2512L8.83233 11.766C7.8307 13.1005 7.56041 14.9245 8.12748 16.532C9.00192 19.0103 11.2331 21.6432 14.7626 24.3637C14.8103 24.4204 14.8633 24.4668 14.9269 24.5132C15.017 24.575 15.1071 24.6368 15.1972 24.6935C15.282 24.7605 15.3721 24.8223 15.4569 24.8893C15.5152 24.9357 15.5841 24.9717 15.653 24.9975C19.3945 27.4346 22.6538 28.6969 25.3513 28.7536C25.3884 28.7536 25.4202 28.7536 25.4573 28.7536C27.132 28.7536 28.7272 27.955 29.7395 26.5999L30.8736 25.0851C31.2075 24.642 31.3453 24.0958 31.2552 23.5496C31.1651 23.0035 30.8524 22.5346 30.3966 22.21ZM29.5752 24.1782L28.441 25.6931C27.7097 26.6669 26.5597 27.2285 25.3672 27.2079C23.6555 27.1718 20.6718 26.4865 16.1194 23.4466C11.7577 20.1593 10.1731 17.6037 9.61668 16.0322C9.21391 14.8987 9.39939 13.6106 10.1042 12.678L11.2437 11.1632C11.3285 11.0498 11.4504 10.9777 11.5881 10.9571C11.7259 10.9365 11.869 10.9674 11.9856 11.0498L15.6795 13.6724C15.7961 13.7549 15.8703 13.8734 15.8915 14.0073C15.9127 14.1413 15.8809 14.2804 15.7961 14.3938L14.7096 15.8416C14.4553 16.1095 14.2009 16.599 14.2433 17.2173C14.3281 18.459 15.4569 19.7626 17.6721 21.195L17.8311 21.3032C19.9298 22.9365 21.5568 23.5857 22.7969 23.2817C23.417 23.1323 23.8197 22.751 24.0052 22.4316L25.0917 20.9837C25.2613 20.7519 25.5951 20.7055 25.8336 20.8704L29.4639 23.4466C29.5805 23.529 29.6547 23.6475 29.6759 23.7815C29.6918 23.9309 29.66 24.07 29.5752 24.1782Z" fill="#EB6D1B" stroke="#EB6D1B" stroke-width="1.0101"/>
<path d="M19.6244 1.11084C9.46496 1.11084 1.19751 9.14865 1.19751 19.0259C1.19751 23.2612 2.73441 27.3419 5.53792 30.5673L2.26804 36.7657C2.12495 37.0388 2.16205 37.3737 2.36343 37.6107C2.51712 37.7911 2.74501 37.889 2.97289 37.889C3.04709 37.889 3.12658 37.8787 3.20078 37.858L11.9717 35.323C14.383 36.3947 16.9534 36.9358 19.6244 36.9358C29.7838 36.9358 38.0513 28.8979 38.0513 19.0207C38.0513 9.14349 29.7838 1.11084 19.6244 1.11084ZM19.6244 35.39C17.0912 35.39 14.6533 34.8542 12.3745 33.7979C12.1943 33.7155 11.9929 33.7 11.8074 33.7567L4.53099 35.8589L7.19671 30.8044C7.3451 30.521 7.30271 30.1758 7.08012 29.9336C4.3137 26.9297 2.7874 23.0499 2.7874 19.0207C2.7874 9.99365 10.3394 2.65142 19.6244 2.65142C28.9094 2.65142 36.4614 9.99365 36.4614 19.0207C36.4614 28.0478 28.9094 35.39 19.6244 35.39Z" fill="#EB6D1B" stroke="#EB6D1B" stroke-width="1.0101"/>
</svg>
