<svg width="37" height="37" viewBox="0 0 37 37" fill="none" xmlns="http://www.w3.org/2000/svg">
<path d="M18.5007 0.869705C15.0189 0.869705 11.6153 1.90217 8.72031 3.83654C5.82532 5.77091 3.56895 8.52031 2.23653 11.737C0.904112 14.9538 0.555491 18.4934 1.23475 21.9083C1.91401 25.3231 3.59065 28.4599 6.05263 30.9219C8.51462 33.3839 11.6514 35.0605 15.0663 35.7398C18.4811 36.419 22.0207 36.0704 25.2375 34.738C28.4542 33.4056 31.2036 31.1492 33.138 28.2542C35.0724 25.3592 36.1048 21.9556 36.1048 18.4739C36.0999 13.8065 34.2436 9.33164 30.9432 6.03129C27.6429 2.73094 23.1681 0.874634 18.5007 0.869705ZM18.5007 33.3697C15.5545 33.3697 12.6746 32.4961 10.225 30.8593C7.77537 29.2225 5.86613 26.8961 4.7387 24.1743C3.61127 21.4524 3.31629 18.4573 3.89104 15.5678C4.4658 12.6783 5.88449 10.0241 7.96771 7.94093C10.0509 5.85771 12.7051 4.43902 15.5946 3.86426C18.4841 3.2895 21.4792 3.58449 24.201 4.71192C26.9229 5.83935 29.2493 7.74858 30.8861 10.1982C32.5229 12.6478 33.3965 15.5278 33.3965 18.4739C33.392 22.4231 31.8212 26.2093 29.0287 29.0019C26.2361 31.7944 22.4499 33.3652 18.5007 33.3697ZM29.334 18.4739C29.334 18.833 29.1913 19.1775 28.9374 19.4314C28.6834 19.6854 28.339 19.828 27.9798 19.828H18.5007C18.1415 19.828 17.7971 19.6854 17.5431 19.4314C17.2892 19.1775 17.1465 18.833 17.1465 18.4739V8.99471C17.1465 8.63556 17.2892 8.29112 17.5431 8.03716C17.7971 7.78321 18.1415 7.64054 18.5007 7.64054C18.8598 7.64054 19.2042 7.78321 19.4582 8.03716C19.7122 8.29112 19.8548 8.63556 19.8548 8.99471V17.1197H27.9798C28.339 17.1197 28.6834 17.2624 28.9374 17.5163C29.1913 17.7703 29.334 18.1147 29.334 18.4739Z" fill="#EB6D1B"/>
</svg>
