<svg width="35" height="44" viewBox="0 0 35 44" fill="none" xmlns="http://www.w3.org/2000/svg">
<path d="M31.8182 39.9607H21.9824C23.6347 38.5365 25.1928 37.0138 26.6477 35.4015C32.1065 29.3412 35 22.9526 35 16.9249C35 12.4447 33.1563 8.14792 29.8744 4.97989C26.5925 1.81187 22.1413 0.0320911 17.5 0.0320911C12.8587 0.0320911 8.40752 1.81187 5.12563 4.97989C1.84375 8.14792 0 12.4447 0 16.9249C0 22.9526 2.88551 29.3412 8.35227 35.4015C9.80718 37.0138 11.3653 38.5365 13.0176 39.9607H3.18182C2.75988 39.9607 2.35523 40.1225 2.05688 40.4105C1.75852 40.6985 1.59091 41.0891 1.59091 41.4964C1.59091 41.9037 1.75852 42.2943 2.05688 42.5823C2.35523 42.8703 2.75988 43.0321 3.18182 43.0321H31.8182C32.2401 43.0321 32.6448 42.8703 32.9431 42.5823C33.2415 42.2943 33.4091 41.9037 33.4091 41.4964C33.4091 41.0891 33.2415 40.6985 32.9431 40.4105C32.6448 40.1225 32.2401 39.9607 31.8182 39.9607ZM3.18182 16.9249C3.18182 13.2593 4.69034 9.74374 7.37552 7.15172C10.0607 4.5597 13.7026 3.10352 17.5 3.10352C21.2974 3.10352 24.9393 4.5597 27.6245 7.15172C30.3097 9.74374 31.8182 13.2593 31.8182 16.9249C31.8182 27.9111 20.7872 37.0812 17.5 39.5767C14.2128 37.0812 3.18182 27.9111 3.18182 16.9249ZM25.4545 16.9249C25.4545 15.4063 24.988 13.9217 24.114 12.659C23.2399 11.3962 21.9976 10.412 20.5441 9.83087C19.0906 9.2497 17.4912 9.09764 15.9481 9.39392C14.4051 9.6902 12.9878 10.4215 11.8753 11.4954C10.7628 12.5692 10.0052 13.9374 9.6983 15.4269C9.39137 16.9164 9.5489 18.4603 10.151 19.8634C10.753 21.2665 11.7726 22.4657 13.0807 23.3094C14.3888 24.1532 15.9267 24.6035 17.5 24.6035C19.6097 24.6035 21.6329 23.7945 23.1247 22.3545C24.6165 20.9145 25.4545 18.9614 25.4545 16.9249ZM12.7273 16.9249C12.7273 16.0137 13.0072 15.123 13.5316 14.3654C14.0561 13.6077 14.8015 13.0172 15.6736 12.6685C16.5457 12.3198 17.5053 12.2286 18.4311 12.4063C19.3569 12.5841 20.2074 13.0229 20.8748 13.6672C21.5423 14.3115 21.9969 15.1324 22.181 16.0261C22.3652 16.9198 22.2707 17.8462 21.9094 18.688C21.5482 19.5299 20.9365 20.2494 20.1516 20.7556C19.3667 21.2619 18.444 21.5321 17.5 21.5321C16.2342 21.5321 15.0202 21.0467 14.1252 20.1827C13.2301 19.3187 12.7273 18.1468 12.7273 16.9249Z" fill="#EB6D1B"/>
</svg>
