<svg width="35" height="30" viewBox="0 0 35 30" fill="none" xmlns="http://www.w3.org/2000/svg">
<path d="M5.6875 0.728363H29.3125C30.7652 0.728265 32.1629 1.30393 33.2189 2.33727C34.2749 3.37061 34.909 4.78328 34.9913 6.28549L35 6.61899V23.8377C35.0001 25.3424 34.4443 26.79 33.4466 27.8837C32.4489 28.9773 31.0849 29.6341 29.6345 29.7193L29.3125 29.7284H5.6875C4.23476 29.7285 2.83705 29.1528 1.7811 28.1195C0.725142 27.0861 0.0909977 25.6734 0.00875021 24.1712L1.22066e-08 23.8377V6.61899C-9.51068e-05 5.11436 0.55572 3.66674 1.55343 2.57307C2.55113 1.4794 3.91509 0.822611 5.3655 0.737426L5.6875 0.728363ZM32.375 10.4669L18.1125 18.2425C17.9515 18.3307 17.7745 18.3831 17.5928 18.3965C17.4111 18.4099 17.2287 18.384 17.0572 18.3205L16.8892 18.2444L2.625 10.4687V23.8377C2.62503 24.6338 2.91405 25.4007 3.43469 25.9863C3.95533 26.5718 4.66952 26.9332 5.4355 26.9987L5.6875 27.0096H29.3125C30.0814 27.0095 30.8221 26.71 31.3875 26.1703C31.9529 25.6307 32.3017 24.8906 32.3645 24.0969L32.375 23.8377V10.4669ZM29.3125 3.44711H5.6875C4.91892 3.44714 4.17844 3.74649 3.61307 4.28572C3.04769 4.82495 2.69874 5.56466 2.6355 6.35799L2.625 6.61899V7.39655L17.5 15.5039L32.375 7.39474V6.61899C32.3749 5.82267 32.0857 5.05551 31.5647 4.46989C31.0437 3.88428 30.329 3.52306 29.5627 3.45799L29.3125 3.44711Z" fill="#EB6D1B"/>
</svg>
