<svg width="37" height="37" viewBox="0 0 37 37" fill="none" xmlns="http://www.w3.org/2000/svg">
<path d="M24.7391 36.1351C27.5725 36.1347 30.1064 35.1838 32.0666 33.2221L34.9294 30.3578C36.3569 28.9286 36.3569 26.6027 34.929 25.1742L30.5794 20.8217C29.8352 20.0766 28.8079 19.6899 27.7551 19.7551C26.7048 19.8225 25.7333 20.3394 25.09 21.1728L22.2689 24.8285C20.217 23.726 18.3015 22.2914 16.5677 20.556C14.8428 18.83 13.4142 16.9238 12.3152 14.8841L15.9776 12.054C16.8104 11.4107 17.327 10.439 17.3944 9.38815C17.4618 8.33704 17.0735 7.30665 16.3289 6.56154L11.9797 2.20899C11.2879 1.51632 10.368 1.13509 9.38924 1.13509C8.41085 1.13509 7.49101 1.51631 6.79956 2.20899L4.52267 4.48666C4.2877 4.68632 4.0924 4.86517 3.91098 5.04634C-1.39125 10.3514 0.695427 19.8499 8.98395 28.1437C14.2083 33.372 19.9099 36.1346 24.7388 36.1346L24.7391 36.1351ZM5.65617 6.79442C5.81564 6.63522 5.98359 6.48605 6.15461 6.34228C6.18119 6.31954 6.207 6.29603 6.23204 6.27097L8.54551 3.9563C8.77086 3.73042 9.07053 3.6063 9.38909 3.6063C9.70803 3.6063 10.0077 3.73042 10.2334 3.9563L14.5826 8.30885C14.8287 8.55554 14.9524 8.8828 14.93 9.23009C14.9077 9.57738 14.7436 9.88575 14.4682 10.0989L10.3123 13.3102C9.65901 13.8151 9.45371 14.714 9.82388 15.4487C11.0746 17.9306 12.7559 20.2368 14.821 22.3033C16.8953 24.3794 19.2126 26.068 21.7091 27.3219C22.4417 27.6897 23.3388 27.4842 23.8423 26.832L27.0436 22.6833C27.2563 22.4077 27.5648 22.2435 27.9119 22.2216C28.2601 22.1961 28.586 22.3229 28.8321 22.5688L33.1817 26.9214C33.647 27.387 33.6466 28.1452 33.1817 28.6108L30.3193 31.4751C26.0448 35.7514 17.9892 33.6642 10.7286 26.3983C3.46926 19.132 1.38308 11.0708 5.65632 6.79412L5.65617 6.79442Z" fill="#EB6D1B" stroke="#EB6D1B" stroke-width="0.431792"/>
</svg>
