<svg width="45" height="19" viewBox="0 0 45 19" fill="none" xmlns="http://www.w3.org/2000/svg">
<path d="M0.758523 16V7.27273H2.60369V10.8736H6.34943V7.27273H8.19034V16H6.34943V12.3949H2.60369V16H0.758523ZM11.5568 7.27273V16H9.71165V7.27273H11.5568ZM17.8093 9.78267C17.7752 9.43892 17.6289 9.17187 17.3704 8.98153C17.1119 8.79119 16.761 8.69602 16.3178 8.69602C16.0167 8.69602 15.7624 8.73864 15.555 8.82386C15.3477 8.90625 15.1886 9.02131 15.0778 9.16903C14.9698 9.31676 14.9158 9.48438 14.9158 9.67188C14.9102 9.82812 14.9428 9.96449 15.0138 10.081C15.0877 10.1974 15.1886 10.2983 15.3164 10.3835C15.4442 10.4659 15.592 10.5384 15.7596 10.6009C15.9272 10.6605 16.1062 10.7116 16.2965 10.7543L17.0806 10.9418C17.4613 11.027 17.8107 11.1406 18.1289 11.2827C18.4471 11.4247 18.7227 11.5994 18.9556 11.8068C19.1886 12.0142 19.369 12.2585 19.4968 12.5398C19.6275 12.821 19.6942 13.1435 19.6971 13.5071C19.6942 14.0412 19.5579 14.5043 19.288 14.8963C19.021 15.2855 18.6346 15.5881 18.1289 15.804C17.6261 16.017 17.0195 16.1236 16.3093 16.1236C15.6048 16.1236 14.9911 16.0156 14.4684 15.7997C13.9485 15.5838 13.5423 15.2642 13.2496 14.8409C12.9599 14.4148 12.8079 13.8878 12.7937 13.2599H14.5792C14.5991 13.5526 14.6829 13.7969 14.8306 13.9929C14.9812 14.1861 15.1815 14.3324 15.4315 14.4318C15.6843 14.5284 15.9698 14.5767 16.288 14.5767C16.6005 14.5767 16.8718 14.5312 17.1019 14.4403C17.3349 14.3494 17.5153 14.223 17.6431 14.0611C17.771 13.8991 17.8349 13.7131 17.8349 13.5028C17.8349 13.3068 17.7766 13.142 17.6602 13.0085C17.5465 12.875 17.3789 12.7614 17.1573 12.6676C16.9386 12.5739 16.6701 12.4886 16.3519 12.4119L15.4016 12.1733C14.6658 11.9943 14.0849 11.7145 13.6587 11.3338C13.2326 10.9531 13.021 10.4403 13.0238 9.79545C13.021 9.26705 13.1616 8.8054 13.4457 8.41051C13.7326 8.01562 14.1261 7.70739 14.6261 7.4858C15.1261 7.2642 15.6942 7.15341 16.3306 7.15341C16.9783 7.15341 17.5437 7.2642 18.0266 7.4858C18.5124 7.70739 18.8903 8.01562 19.1602 8.41051C19.43 8.8054 19.5692 9.26278 19.5778 9.78267H17.8093ZM25.6726 9.78267C25.6385 9.43892 25.4922 9.17187 25.2337 8.98153C24.9751 8.79119 24.6243 8.69602 24.1811 8.69602C23.88 8.69602 23.6257 8.73864 23.4183 8.82386C23.2109 8.90625 23.0518 9.02131 22.9411 9.16903C22.8331 9.31676 22.7791 9.48438 22.7791 9.67188C22.7734 9.82812 22.8061 9.96449 22.8771 10.081C22.951 10.1974 23.0518 10.2983 23.1797 10.3835C23.3075 10.4659 23.4553 10.5384 23.6229 10.6009C23.7905 10.6605 23.9695 10.7116 24.1598 10.7543L24.9439 10.9418C25.3246 11.027 25.674 11.1406 25.9922 11.2827C26.3104 11.4247 26.5859 11.5994 26.8189 11.8068C27.0518 12.0142 27.2322 12.2585 27.3601 12.5398C27.4908 12.821 27.5575 13.1435 27.5604 13.5071C27.5575 14.0412 27.4212 14.5043 27.1513 14.8963C26.8842 15.2855 26.4979 15.5881 25.9922 15.804C25.4893 16.017 24.8828 16.1236 24.1726 16.1236C23.468 16.1236 22.8544 16.0156 22.3317 15.7997C21.8118 15.5838 21.4055 15.2642 21.1129 14.8409C20.8232 14.4148 20.6712 13.8878 20.657 13.2599H22.4425C22.4624 13.5526 22.5462 13.7969 22.6939 13.9929C22.8445 14.1861 23.0447 14.3324 23.2947 14.4318C23.5476 14.5284 23.8331 14.5767 24.1513 14.5767C24.4638 14.5767 24.7351 14.5312 24.9652 14.4403C25.1982 14.3494 25.3786 14.223 25.5064 14.0611C25.6342 13.8991 25.6982 13.7131 25.6982 13.5028C25.6982 13.3068 25.6399 13.142 25.5234 13.0085C25.4098 12.875 25.2422 12.7614 25.0206 12.6676C24.8018 12.5739 24.5334 12.4886 24.2152 12.4119L23.2649 12.1733C22.5291 11.9943 21.9482 11.7145 21.522 11.3338C21.0959 10.9531 20.8842 10.4403 20.8871 9.79545C20.8842 9.26705 21.0249 8.8054 21.3089 8.41051C21.5959 8.01562 21.9893 7.70739 22.4893 7.4858C22.9893 7.2642 23.5575 7.15341 24.1939 7.15341C24.8416 7.15341 25.407 7.2642 25.8899 7.4858C26.3757 7.70739 26.7536 8.01562 27.0234 8.41051C27.2933 8.8054 27.4325 9.26278 27.4411 9.78267H25.6726ZM28.8015 16V7.27273H34.6822V8.79403H30.6467V10.8736H34.3796V12.3949H30.6467V14.4787H34.6992V16H28.8015ZM43.4489 7.27273V16H41.8551L38.0582 10.5071H37.9943V16H36.1491V7.27273H37.7685L41.5355 12.7614H41.6122V7.27273H43.4489Z" fill="#222222"/>
<path d="M27.2273 4.04261C27.0038 4.04261 26.8116 3.99527 26.6506 3.90057C26.4905 3.80492 26.3674 3.67235 26.2812 3.50284C26.196 3.33333 26.1534 3.13826 26.1534 2.91761C26.1534 2.69413 26.1965 2.49811 26.2827 2.32955C26.3698 2.16004 26.4934 2.02794 26.6534 1.93324C26.8134 1.83759 27.0038 1.78977 27.2244 1.78977C27.4148 1.78977 27.5814 1.82434 27.7244 1.89347C27.8674 1.96259 27.9806 2.05966 28.0639 2.18466C28.1473 2.30966 28.1932 2.45644 28.2017 2.625H27.6307C27.6146 2.5161 27.572 2.4285 27.5028 2.36222C27.4347 2.29498 27.3452 2.26136 27.2344 2.26136C27.1406 2.26136 27.0587 2.28693 26.9886 2.33807C26.9195 2.38826 26.8655 2.46165 26.8267 2.55824C26.7879 2.65483 26.7685 2.77178 26.7685 2.90909C26.7685 3.0483 26.7874 3.16667 26.8253 3.2642C26.8641 3.36174 26.9186 3.43608 26.9886 3.48722C27.0587 3.53835 27.1406 3.56392 27.2344 3.56392C27.3035 3.56392 27.3655 3.54972 27.4205 3.52131C27.4763 3.4929 27.5223 3.4517 27.5582 3.39773C27.5952 3.3428 27.6193 3.27699 27.6307 3.20028H28.2017C28.1922 3.36695 28.1468 3.51373 28.0653 3.64062C27.9848 3.76657 27.8736 3.86506 27.7315 3.93608C27.5895 4.0071 27.4214 4.04261 27.2273 4.04261ZM29.5749 4.04261C29.3543 4.04261 29.1635 3.99574 29.0025 3.90199C28.8424 3.80729 28.7189 3.67566 28.6317 3.5071C28.5446 3.33759 28.5011 3.1411 28.5011 2.91761C28.5011 2.69223 28.5446 2.49527 28.6317 2.3267C28.7189 2.1572 28.8424 2.02557 29.0025 1.93182C29.1635 1.83712 29.3543 1.78977 29.5749 1.78977C29.7956 1.78977 29.9859 1.83712 30.146 1.93182C30.3069 2.02557 30.431 2.1572 30.5181 2.3267C30.6052 2.49527 30.6488 2.69223 30.6488 2.91761C30.6488 3.1411 30.6052 3.33759 30.5181 3.5071C30.431 3.67566 30.3069 3.80729 30.146 3.90199C29.9859 3.99574 29.7956 4.04261 29.5749 4.04261ZM29.5778 3.57386C29.6781 3.57386 29.762 3.54545 29.8292 3.48864C29.8964 3.43087 29.9471 3.35227 29.9812 3.25284C30.0162 3.15341 30.0337 3.04025 30.0337 2.91335C30.0337 2.78646 30.0162 2.6733 29.9812 2.57386C29.9471 2.47443 29.8964 2.39583 29.8292 2.33807C29.762 2.2803 29.6781 2.25142 29.5778 2.25142C29.4764 2.25142 29.3912 2.2803 29.3221 2.33807C29.2539 2.39583 29.2023 2.47443 29.1673 2.57386C29.1332 2.6733 29.1161 2.78646 29.1161 2.91335C29.1161 3.04025 29.1332 3.15341 29.1673 3.25284C29.2023 3.35227 29.2539 3.43087 29.3221 3.48864C29.3912 3.54545 29.4764 3.57386 29.5778 3.57386ZM31.0423 4V1.81818H31.619V2.20312H31.6445C31.69 2.07528 31.7657 1.97443 31.8718 1.90057C31.9779 1.8267 32.1048 1.78977 32.2525 1.78977C32.4021 1.78977 32.5295 1.82718 32.6346 1.90199C32.7397 1.97585 32.8098 2.07623 32.8448 2.20312H32.8675C32.9121 2.07812 32.9925 1.97822 33.109 1.90341C33.2264 1.82765 33.3652 1.78977 33.5252 1.78977C33.7288 1.78977 33.8941 1.85464 34.021 1.98438C34.1488 2.11316 34.2127 2.29593 34.2127 2.53267V4H33.609V2.65199C33.609 2.53078 33.5768 2.43987 33.5124 2.37926C33.448 2.31866 33.3675 2.28835 33.271 2.28835C33.1611 2.28835 33.0754 2.32339 33.0138 2.39347C32.9523 2.46259 32.9215 2.55398 32.9215 2.66761V4H32.3349V2.6392C32.3349 2.5322 32.3041 2.44697 32.2425 2.38352C32.1819 2.32008 32.1019 2.28835 32.0025 2.28835C31.9353 2.28835 31.8746 2.3054 31.8207 2.33949C31.7676 2.37263 31.7255 2.41951 31.6942 2.48011C31.663 2.53977 31.6474 2.60985 31.6474 2.69034V4H31.0423ZM34.6907 4.81818V1.81818H35.2873V2.18466H35.3143C35.3408 2.12595 35.3791 2.06629 35.4293 2.00568C35.4805 1.94413 35.5468 1.89299 35.6282 1.85227C35.7106 1.81061 35.8129 1.78977 35.935 1.78977C36.0941 1.78977 36.2409 1.83144 36.3754 1.91477C36.5098 1.99716 36.6173 2.12169 36.6978 2.28835C36.7783 2.45407 36.8185 2.66193 36.8185 2.91193C36.8185 3.1553 36.7792 3.3608 36.7006 3.52841C36.623 3.69508 36.5169 3.8215 36.3825 3.90767C36.2489 3.9929 36.0993 4.03551 35.9336 4.03551C35.8162 4.03551 35.7163 4.0161 35.6339 3.97727C35.5524 3.93845 35.4857 3.88968 35.4336 3.83097C35.3815 3.77131 35.3417 3.71117 35.3143 3.65057H35.2958V4.81818H34.6907ZM35.283 2.90909C35.283 3.03883 35.301 3.15199 35.337 3.24858C35.373 3.34517 35.4251 3.42045 35.4933 3.47443C35.5614 3.52746 35.6443 3.55398 35.7418 3.55398C35.8403 3.55398 35.9237 3.52699 35.9918 3.47301C36.06 3.41809 36.1116 3.34233 36.1467 3.24574C36.1826 3.1482 36.2006 3.03598 36.2006 2.90909C36.2006 2.78314 36.1831 2.67235 36.1481 2.5767C36.113 2.48106 36.0614 2.40625 35.9933 2.35227C35.9251 2.2983 35.8413 2.27131 35.7418 2.27131C35.6433 2.27131 35.56 2.29735 35.4918 2.34943C35.4246 2.40152 35.373 2.47538 35.337 2.57102C35.301 2.66667 35.283 2.77936 35.283 2.90909ZM37.8441 4.04119C37.7049 4.04119 37.5808 4.01705 37.4719 3.96875C37.363 3.91951 37.2769 3.84706 37.2134 3.75142C37.1509 3.65483 37.1197 3.53456 37.1197 3.39062C37.1197 3.26941 37.1419 3.16761 37.1864 3.08523C37.2309 3.00284 37.2915 2.93655 37.3683 2.88636C37.445 2.83617 37.5321 2.7983 37.6296 2.77273C37.7281 2.74716 37.8313 2.72917 37.9393 2.71875C38.0662 2.70549 38.1684 2.69318 38.2461 2.68182C38.3237 2.66951 38.3801 2.65152 38.4151 2.62784C38.4502 2.60417 38.4677 2.56913 38.4677 2.52273V2.5142C38.4677 2.42424 38.4393 2.35464 38.3825 2.3054C38.3266 2.25616 38.247 2.23153 38.1438 2.23153C38.0349 2.23153 37.9483 2.25568 37.8839 2.30398C37.8195 2.35133 37.7769 2.41098 37.756 2.48295L37.1964 2.4375C37.2248 2.30492 37.2807 2.19034 37.364 2.09375C37.4473 1.99621 37.5548 1.9214 37.6864 1.86932C37.819 1.81629 37.9724 1.78977 38.1467 1.78977C38.2679 1.78977 38.3839 1.80398 38.4947 1.83239C38.6064 1.8608 38.7054 1.90483 38.7915 1.96449C38.8787 2.02415 38.9473 2.10085 38.9975 2.1946C39.0477 2.28741 39.0728 2.39867 39.0728 2.52841V4H38.4989V3.69744H38.4819C38.4469 3.76562 38.4 3.82576 38.3413 3.87784C38.2826 3.92898 38.212 3.96922 38.1296 3.99858C38.0472 4.02699 37.9521 4.04119 37.8441 4.04119ZM38.0174 3.62358C38.1064 3.62358 38.185 3.60606 38.2532 3.57102C38.3214 3.53504 38.3749 3.48674 38.4137 3.42614C38.4525 3.36553 38.4719 3.29687 38.4719 3.22017V2.98864C38.453 3.00095 38.427 3.01231 38.3938 3.02273C38.3616 3.0322 38.3252 3.04119 38.2844 3.04972C38.2437 3.05729 38.203 3.06439 38.1623 3.07102C38.1216 3.0767 38.0846 3.08191 38.0515 3.08665C37.9805 3.09706 37.9184 3.11364 37.8654 3.13636C37.8124 3.15909 37.7712 3.18987 37.7418 3.22869C37.7125 3.26657 37.6978 3.31392 37.6978 3.37074C37.6978 3.45312 37.7276 3.5161 37.7873 3.55966C37.8479 3.60227 37.9246 3.62358 38.0174 3.62358ZM40.1474 2.73864V4H39.5423V1.81818H40.119V2.20312H40.1445C40.1928 2.07623 40.2738 1.97585 40.3874 1.90199C40.5011 1.82718 40.6388 1.78977 40.8008 1.78977C40.9523 1.78977 41.0844 1.82292 41.1971 1.8892C41.3098 1.95549 41.3974 2.05019 41.4599 2.1733C41.5224 2.29545 41.5536 2.44129 41.5536 2.6108V4H40.9485V2.71875C40.9495 2.58523 40.9154 2.48106 40.8462 2.40625C40.7771 2.33049 40.6819 2.29261 40.5607 2.29261C40.4793 2.29261 40.4073 2.31013 40.3448 2.34517C40.2833 2.38021 40.235 2.43134 40.1999 2.49858C40.1658 2.56487 40.1483 2.64489 40.1474 2.73864ZM42.326 4.81818C42.2493 4.81818 42.1773 4.81203 42.1101 4.79972C42.0438 4.78835 41.9889 4.77367 41.9453 4.75568L42.0817 4.30398C42.1527 4.32576 42.2166 4.33759 42.2734 4.33949C42.3312 4.34138 42.3809 4.32813 42.4226 4.29972C42.4652 4.27131 42.4998 4.22301 42.5263 4.15483L42.5618 4.0625L41.7791 1.81818H42.4155L42.8672 3.42045H42.8899L43.3459 1.81818H43.9865L43.1385 4.2358C43.0978 4.35322 43.0424 4.45549 42.9723 4.54261C42.9032 4.63068 42.8156 4.69839 42.7095 4.74574C42.6035 4.79403 42.4756 4.81818 42.326 4.81818Z" fill="#EB6D1B"/>
<line x1="1" y1="3.1" x2="25" y2="3.1" stroke="#222222" stroke-width="1.8"/>
</svg>
